<?xml version="1.0" encoding="UTF-8"?><svg version="1.1" viewBox="0 0 30 30" xmlns="http://www.w3.org/2000/svg" xmlns:xlink="http://www.w3.org/1999/xlink"><path d="M27.5 5h-25c-1.4 0-2.5 1.1-2.5 2.5v15c0 1.4 1.1 2.5 2.5 2.5h25c1.4 0 2.5-1.1 2.5-2.5v-15c0-1.4-1.1-2.5-2.5-2.5Zm-16.7 10.9l-7 6c-.1.1-.2.1-.3.1 -.1 0-.3-.1-.4-.2 -.2-.2-.2-.5.1-.7l7-6c.2-.2.5-.2.7.1 .2.2.1.5-.1.7Zm3.9.1c-.7 0-1.5-.2-2-.6l-9.5-6.5c-.2-.1-.3-.5-.1-.7 .1-.2.4-.3.7-.1l9.5 6.5c.8.6 2.1.6 2.9 0l10-6.5c.2-.2.5-.1.7.1 .2.2.1.5-.1.7l-10 6.5c-.6.4-1.3.6-2.1.6Zm12.2 5.8c-.1.1-.2.2-.4.2 -.1 0-.2 0-.3-.1l-7-6c-.2-.2-.2-.5-.1-.7 .1-.2.5-.2.7-.1l7 6c.2.2.3.5.1.7Z" fill="#8C8DD7"></path></svg>