<?xml version="1.0" encoding="UTF-8"?><svg version="1.1" viewBox="0 0 531 530" xmlns="http://www.w3.org/2000/svg" xmlns:xlink="http://www.w3.org/1999/xlink"><path d="M467.026 9.13604c-4.598.47101-9.891 1.72706-14.041 3.31946 -1.458.5608-23.281 9.1736-48.469 19.1097l-45.823 18.0778 -4.755-2.041c-27.431-11.708-55.579-18.2349-85.522-19.8049 -6.46-.3365-24.223-.1346-30.167.3364 -22.227 1.7943-41.449 5.7194-61.949 12.6725 -46.787 15.8798-88.1916 46.1366-118.202 86.397 -25.143 33.733-41.3593 74.106-46.6077 115.981 -1.4355 11.663-1.88405 18.863-1.88405 31.131 0 12.045.58315 21.443 2.01865 32.074 4.9792 37.457 18.0105 72.469 38.5108 103.555 1.4803 2.266 2.7587 4.105 2.826 4.105 .0673 0 .6953-.83 1.3458-1.862 12.7846-19.289 21.7562-38.511 27.5654-59.145 2.0859-7.335 2.7812-10.811 4.8671-24.067 2.4223-15.453 9.0838-31.064 18.6838-43.737 5.495-7.289 12.695-14.511 19.67-19.737 26.444-19.783 60.783-25.278 92.296-14.759 16.665 5.585 31.378 15.387 43.131 28.732 13.031 14.826 21.397 33.397 23.909 53.157 2.154 16.665.023 33.644-6.19 49.322 -4.553 11.506-10.923 21.666-19.536 31.109 -8.029 8.815-19.02 16.934-29.988 22.205 -10.294 4.912-18.548 7.312-32.41 9.398 -7.984 1.188-14.444 2.646-22.204 5.024 -16.284 4.957-31.581 11.73-45.98 20.388 -3.97 2.377-11.663 7.357-11.663 7.536 0 .179 8.882 5.921 12.784 8.254 29.562 17.719 62.196 28.978 96.333 33.24 11.215 1.413 18.033 1.817 30.728 1.817 12.695 0 19.514-.404 30.728-1.817 39.745-4.957 77.897-19.603 110.329-42.324 35.326-24.762 63.542-58.024 81.799-96.445 17.629-37.075 25.816-78.726 23.506-119.592 -1.66-29.629-8.411-58.159-20.186-85.253l-1.571-3.589 18.706-47.437c10.295-26.0855 19.043-48.3801 19.424-49.5464 .987-3.0055 1.749-6.4147 2.153-9.4875 .381-3.0503.449-8.8371.112-11.5958 -3.14-25.5468-25.143-45.105-50.398-44.8134 -1.705-1.77636e-15-3.454.06729-3.88.11215Zm8.052 24.6272c9.196 1.7495 16.822 8.0969 20.321 16.9116 1.233 3.1176 1.727 5.8315 1.749 9.4426 0 3.6111-.404 5.9886-1.615 9.3754 -.83 2.3102-102.411 259.168-103.42 261.456 -.696 1.637-1.907 3.589-3.544 5.675 -5.271 6.818-14.512 10.653-23.528 9.734 -8.725-.875-16.015-5.45-20.388-12.762 -.494-.83-6.393-13.189-13.077-27.431 -6.706-14.243-12.896-27.274-13.771-28.934 -12.987-24.806-32.59-45.621-56.477-59.953 -6.078-3.656-9.42-5.293-37.299-18.414 -14.288-6.729-26.691-12.673-27.588-13.233 -9.914-6.168-14.557-18.347-11.439-29.988 .651-2.422 2.288-5.989 3.701-8.074 2.31-3.41 6.594-7.066 10.34-8.838 1.951-.919 261.12-103.443 263.34-104.183 .852-.2691 2.265-.628 3.14-.785 2.288-.4261 7.334-.4037 9.555 0Z" fill="#000"></path><path fill="#FFCB00" d="M54.3077 412.187c-.6505 1.032-1.2785 1.862-1.3458 1.862l24.4702 30.609 39.0269 32.955c0-.18 7.693-5.159 11.663-7.536 14.399-8.658 29.696-15.432 45.98-20.388 7.76-2.378 14.22-3.836 22.204-5.025 13.862-2.085 22.116-4.485 32.41-9.397 10.968-5.271 21.959-13.391 29.988-22.205 8.613-9.443 14.983-19.603 19.536-31.109 6.213-15.678 8.344-32.657 6.19-49.322 -2.512-19.76-10.878-38.331-23.909-53.157 -11.753-13.345-26.466-23.147-43.131-28.732 -31.513-10.519-65.852-5.024-92.296 14.759 -6.976 5.226-14.175 12.448-19.67 19.737 -9.6 12.673-16.2615 28.283-18.6838 43.737 -2.0859 13.256-2.7812 16.732-4.8672 24.066 -5.8091 20.635-14.7807 39.857-27.5653 59.146Z"></path><path d="M475.078 33.7633c9.196 1.7495 16.822 8.0969 20.321 16.9115 1.233 3.1177 1.727 5.8316 1.749 9.4427 0 3.6111-.404 5.9886-1.615 9.3754 -.83 2.3102-102.411 259.168-103.42 261.456 -.696 1.637-1.907 3.589-3.544 5.675 -5.271 6.818-14.512 10.653-23.528 9.734 -8.725-.875-16.015-5.45-20.388-12.762 -.494-.83-6.393-13.189-13.077-27.431 -6.706-14.243-12.896-27.274-13.771-28.934 -12.987-24.806-32.59-45.62-56.477-59.953 -6.078-3.656-9.42-5.293-37.299-18.414 -14.288-6.729-26.691-12.672-27.588-13.233 -9.914-6.168-14.557-18.347-11.439-29.988 .651-2.422 2.288-5.988 3.701-8.074 2.31-3.41 6.594-7.066 10.34-8.837 1.951-.92 261.119-103.444 263.34-104.184 .852-.2691 2.265-.628 3.14-.785 2.288-.4262 7.334-.4037 9.555 0Z" fill="#68D072"></path><path fill="#000" d="M375.56 107.458c-20.456 1.974-36.672 17.898-39.094 38.421 -.337 2.781-.135 9.891.314 12.358 2.624 13.951 11.102 25.345 23.438 31.513 10.295 5.137 22.228 6.011 33.106 2.445 10.272-3.364 19.064-10.586 24.425-20.074 6.908-12.224 7.357-27.767 1.121-40.462 -8.007-16.284-25.277-25.951-43.31-24.201Zm9.039 24.425c8.523 2.221 14.668 10.138 14.691 18.863 0 9.959-7.559 18.37-17.54 19.469 -5.517.605-11.147-1.279-15.274-5.137 -4.06-3.79-6.213-8.702-6.213-14.175 0-5.226 1.727-9.667 5.249-13.345 3.229-3.409 6.997-5.428 11.461-6.123 1.951-.292 5.562-.09 7.626.448Z"></path><path d="M384.599 131.883c8.523 2.221 14.668 10.138 14.691 18.863 0 9.959-7.559 18.369-17.54 19.469 -5.517.605-11.147-1.279-15.274-5.137 -4.06-3.79-6.213-8.702-6.213-14.175 0-5.226 1.727-9.667 5.249-13.345 3.229-3.41 6.997-5.428 11.461-6.123 1.951-.292 5.562-.09 7.626.448Z" fill="#FFF"></path><path fill="#000" d="M145.168 308.961c-7.222 1.144-13.66 4.845-18.998 10.878 -5.652 6.437-9.599 13.256-12.179 21.061 -2.063 6.235-2.96 11.73-2.96 18.414 -.023 4.845.291 8.075 1.188 12.449l.651 3.14 -25.5919 25.591 -25.5916 25.592 2.0859 2.557c3.5438 4.373 7.2446 8.68 10.452 12.179l1.2336 1.323 23.5281-23.528 23.5279-23.528 .382.561c2.153 3.072 7.087 8.141 10.496 10.81l2.131 1.638 -23.528 23.55 -23.5281 23.551 1.2336 1.121c5.0017 4.509 13.4355 11.619 14.6235 12.314 .225.134 7.447-6.931 25.906-25.39l25.592-25.569 2.332.516c4.172.964 7.604 1.301 12.807 1.301 7.2.022 12.291-.808 18.953-3.006 8.321-2.759 16.395-7.738 22.563-13.883 4.823-4.823 7.492-9.555 8.838-15.701 .493-2.265.695-7.962.358-10.34 -1.771-12.403-10.564-22.16-22.743-25.232 -3.073-.785-9.061-1.01-12.201-.449 -3.051.516-6.146 1.57-8.949 3.05l-2.49 1.279 .987-1.705c3.633-6.37 4.732-14.803 2.871-22.092 -3.006-11.865-12.673-20.613-24.784-22.452 -2.602-.404-6.639-.404-9.196 0Zm7.783 21.195c2.377.83 4.149 2.468 5.315 4.935 .628 1.323.696 1.66.696 3.701 0 2.063-.068 2.377-.718 3.745 -1.996 4.217-9.981 9.892-17.226 12.247 -1.906.628-5.472 1.413-7.783 1.727 -1.054.134-1.076.134-1.076-.494 0-3.073 1.929-9.824 3.947-13.794 2.355-4.642 6.774-10.115 9.286-11.483 2.288-1.234 5.024-1.458 7.559-.584Zm11.349 36.156c-.09.157-.853 1.301-1.66 2.535 -4.598 6.908-7.536 14.354-8.949 22.698 -.247 1.435-.494 2.669-.561 2.714 -.157.157-3.768-2.041-5.607-3.454 -4.284-3.208-7.94-7.357-10.52-11.955 -.448-.785-.785-1.458-.762-1.48 .045-.023 1.121-.225 2.422-.426 8.411-1.369 16.845-4.733 23.528-9.353 2.445-1.705 2.355-1.638 2.109-1.279Zm29.606 5.451c1.884.493 3.006 1.121 4.351 2.489 2.804 2.781 3.477 7.043 1.683 10.564 -.718 1.458-3.477 4.194-6.325 6.325 -4.868 3.656-12.516 6.639-18.19 7.133l-1.481.134 .202-1.547c.673-5.742 2.804-11.574 5.944-16.351 1.861-2.826 4.643-6.078 6.168-7.2 2.332-1.704 4.979-2.243 7.648-1.547Z"></path></svg>