<?xml version="1.0" encoding="UTF-8"?><svg version="1.1" viewBox="0 0 500 500" xmlns="http://www.w3.org/2000/svg" xmlns:xlink="http://www.w3.org/1999/xlink"><path d="M250 500c138.071 0 250-111.929 250-250 0-138.071-111.929-250-250-250 -138.071 0-250 111.929-250 250 0 138.071 111.929 250 250 250Z" fill="#34AADF"></path><path fill="#FFF" d="M104.047 247.832c0 0 125-51.3 168.352-69.364 16.619-7.225 72.977-30.347 72.977-30.347 0 0 26.012-10.115 23.844 14.451 -.723 10.116-6.503 45.52-12.283 83.815 -8.671 54.191-18.064 113.439-18.064 113.439 0 0-1.445 16.619-13.728 19.509 -12.283 2.89-32.515-10.115-36.127-13.006 -2.891-2.167-54.191-34.682-72.977-50.578 -5.058-4.335-10.838-13.005.722-23.121 26.012-23.844 57.081-53.468 75.867-72.254 8.671-8.671 17.341-28.902-18.786-4.336 -51.3 35.405-101.878 68.642-101.878 68.642 0 0-11.561 7.225-33.237.722 -21.677-6.502-46.966-15.173-46.966-15.173 0 0-17.34-10.838 12.284-22.399Z"></path></svg>