<?xml version="1.0" encoding="UTF-8"?><svg version="1.1" viewBox="0 0 30 30" xmlns="http://www.w3.org/2000/svg" xmlns:xlink="http://www.w3.org/1999/xlink"><path d="M29.4 5.7c-.2-.2-.4-.2-.6-.1 -.3.1-.7.3-1.1.5 .4-.6.7-1.3.8-1.9 .1-.2 0-.4-.2-.5 -.2-.1-.4-.1-.6 0 -1 .6-2.4 1.1-2.9 1.2 -1.1-.9-2.5-1.4-3.8-1.4 -1.7 0-3.3.7-4.6 1.9 -1.2 1.2-1.9 2.8-1.9 4.6 -4.9-.5-7.8-3.5-10.1-6.3 -.1-.1-.3-.2-.4-.2 -.2 0-.3.1-.4.2 -1.4 2.3-1.1 4.6-.8 5.7 .2.8.5 1.4.9 2 -.5-.2-.9-.4-1.3-.8 -.1-.1-.4-.1-.5-.1 -.2.1-.3.3-.3.5 0 2.9 2 4.8 3.6 5.8 -.3-.1-.6-.1-1-.3 -.2-.1-.4 0-.5.1 -.1.1-.2.4-.1.5 .9 2.1 2.9 3.7 5.1 4.1 -2 1.2-5.2 1.9-7.6 1.7 -.2 0-.5.1-.5.3 -.1.2 0 .5.2.6 3 1.7 6.2 2.6 9.3 2.6v0c4.9 0 9.8-2.2 13.2-6.1 3-3.3 4.6-7.5 4.3-11.2 .5-.4.8-1.1 1.2-1.8 .2-.3.4-.7.6-1 .1-.2.1-.5 0-.6Z" fill="#27A5ED"></path></svg>